<svg xmlns="http://www.w3.org/2000/svg" viewBox="0 0 128 128"><path fill="#5382a1" d="M47.617 98.828s-6.75 3.926 4.807 5.25c13.992 1.594 21.164 1.367 36.604-1.559 0 0 4.059 2.547 9.73 4.746-34.617 14.82-78.375-.859-51.141-8.437zM42.441 80.813s-7.574 5.609 4.004 6.816c14.988 1.547 26.83 1.676 47.361-2.273 0 0 2.826 2.879 7.273 4.452-41.887 12.238-88.547.961-58.638-9zM70.188 60.609c8.535 9.828-2.238 18.676-2.238 18.676s21.676-11.199 11.73-25.246c-9.305-13.066-16.43-19.563 22.195-41.992 0-.001-60.586 15.105-31.687 48.562zM105.789 110.464s5.004 4.121-5.512 7.313c-20.008 6.066-83.262 7.898-100.793.242-6.316-2.75 5.52-6.563 9.244-7.375 3.879-.848 6.098-.691 6.098-.691-7.012-4.938-45.309 9.688-19.453 13.875 70.543 11.461 128.719-5.168 110.416-13.364zM50.781 62.316s-32.156 7.652-11.398 10.434c8.777 1.174 26.297.906 42.641-.469 13.359-1.121 26.75-3.516 26.75-3.516s-4.707 2.016-8.121 4.344c-32.789 8.618-96.137 4.609-77.93-4.203 15.422-7.457 28.059-6.59 28.059-6.59zM92.969 90.803c33.488-17.422 18.016-34.195 7.199-31.918-2.648.551-3.836 1.027-3.836 1.027s.984-1.539 2.867-2.207c21.387-7.516 37.793 22.172-6.883 33.969-.001-.002.514-.465.653-.871z"/></svg>
